PathFileType	4	(X/Y/Z)	G:\GRF\jawan data\CompiledGRF\03. Mohit Kumar\0231~ac~Walking 09_markers.trc
DataRate	CameraRate	NumFrames	NumMarkers	Units	OrigDataRate	OrigDataStartFrame	OrigNumFrames
100.000000	100.000000	10	18	mm	100.000000	420	840
Frame#	Time	c7			r should			l should			sacrum			r asis			r bar 1			r knee 1			r bar 2			r mall			r heel			r met			l asis			l bar 1			l knee 1			l bar 2			l mall			l heel			l met			
		X1	Y1	Z1	X2	Y2	Z2	X3	Y3	Z3	X4	Y4	Z4	X5	Y5	Z5	X6	Y6	Z6	X7	Y7	Z7	X8	Y8	Z8	X9	Y9	Z9	X10	Y10	Z10	X11	Y11	Z11	X12	Y12	Z12	X13	Y13	Z13	X14	Y14	Z14	X15	Y15	Z15	X16	Y16	Z16	X17	Y17	Z17	X18	Y18	Z18	

421	4.2	393.6287231445313	1490.504150390625	219.8959350585938	454.4076538085938	1444.457275390625	380.8947143554688	438.6806640625	1452.663696289063	57.70476150512695	282.8573303222656	1040.134765625	233.3195495605469	469.0175476074219	995.6600952148438	331.5435791015625	503.41259765625	589.4573974609375	404.4736328125	547.8350830078125	518.8986206054688	351.4837646484375	621.8069458007813	202.1229248046875	367.3909301757813	687.975341796875	87.35232543945313	304.3348693847656	nan	nan	nan	831.525634765625	114.6681442260742	298.025146484375	442.1129455566406	996.992919921875	86.03900909423828	295.472900390625	589.3609619140625	46.59862899780273	287.9320373535156	502.39501953125	108.1033325195313	160.3563537597656	249.1191101074219	78.13917541503906	105.3488845825195	89.88336181640625	156.2212829589844	36.79864120483398	63.3889045715332	208.4729309082031	232.5172424316406	34.33558654785156	181.5185546875	
422	4.21	404.2444763183594	1489.161743164063	220.8836975097656	465.0523071289063	1443.029052734375	381.8140258789063	449.00048828125	1451.692626953125	58.57165145874023	292.8463439941406	1038.865234375	233.9998779296875	479.482421875	994.3038940429688	331.6907958984375	515.0725708007813	588.5263671875	404.0553588867188	558.380126953125	517.6967163085938	350.7512512207031	630.7241821289063	200.5921020507813	366.4547119140625	696.541259765625	85.72962188720703	303.5231628417969	nan	nan	nan	840.3233032226563	112.3577499389648	297.0537109375	451.6133728027344	995.6730346679688	86.11022186279297	303.1504211425781	588.673828125	46.63417053222656	295.4400024414063	501.6894226074219	108.0891342163086	164.3370971679688	250.1753234863281	77.88310241699219	106.4494400024414	91.61990356445313	155.7154998779297	37.66636276245117	66.21185302734375	207.7660675048828	233.7022399902344	34.81500244140625	181.4171600341797	
423	4.22	414.7619323730469	1487.91748046875	221.9664611816406	475.7235717773438	1441.650390625	382.77783203125	459.4325561523438	1450.780639648438	59.52542877197266	303.3852233886719	1037.531860351563	234.7306671142578	490.3903503417969	993.0595703125	331.9026184082031	527.3284912109375	587.8890991210938	403.5083618164063	569.5673217773438	516.8045654296875	349.9080200195313	639.0667724609375	198.910888671875	365.6596374511719	703.8395385742188	83.48799133300781	302.9314270019531	nan	nan	nan	847.5420532226563	108.8633804321289	296.4085083007813	461.5424194335938	994.4412841796875	86.20303344726563	311.3301391601563	588.0679931640625	46.44999694824219	302.9540710449219	500.8535461425781	107.8865585327148	168.6644592285156	251.2375183105469	77.44841003417969	107.9383850097656	93.55301666259766	155.0000610351563	38.35820388793945	69.49009704589844	206.7787628173828	234.87744140625	35.55989837646484	181.0043487548828	
424	4.23	425.4183959960938	1486.77001953125	223.10302734375	486.5428161621094	1440.274780273438	383.8394165039063	470.7925415039063	1449.641235351563	60.65528869628906	314.3605041503906	1036.185668945313	235.4423828125	501.3685913085938	991.7957763671875	332.0528259277344	539.9273071289063	587.259521484375	402.9126281738281	581.2986450195313	516.1131591796875	348.9150390625	646.8951416015625	197.2031707763672	364.9003601074219	709.3623046875	80.660400390625	302.329833984375	nan	nan	nan	853.2588500976563	104.3261337280273	295.8760375976563	471.76318359375	993.3040161132813	86.34921264648438	319.7748718261719	587.4701538085938	46.23261260986328	310.5926818847656	499.8970031738281	107.6111373901367	173.1409759521484	252.2967529296875	76.94141387939453	109.7693328857422	95.77653503417969	154.1370697021484	39.10556793212891	73.06958770751953	205.6234741210938	237.3282623291016	37.03787994384766	180.7313995361328	
425	4.24	436.2734680175781	1485.6201171875	224.3239440917969	497.4125366210938	1439.009033203125	384.97607421875	482.9961853027344	1448.339477539063	61.85733032226563	325.3267822265625	1034.984130859375	236.2670745849609	512.5113525390625	990.6146240234375	332.1849060058594	552.564208984375	586.5084838867188	402.1907043457031	593.6138916015625	515.6309204101563	347.8332824707031	653.4197387695313	194.9693603515625	364.4003601074219	713.6483154296875	77.55071258544922	301.8235778808594	nan	nan	nan	857.6761474609375	98.86808776855469	295.2553100585938	482.3363342285156	992.2905883789063	86.50896453857422	328.5489196777344	586.88916015625	46.01602172851563	318.6626586914063	499.101806640625	107.3497543334961	178.0032653808594	253.5587310791016	76.32921600341797	111.7415466308594	98.23709869384766	153.1477813720703	40.41350173950195	76.79286956787109	204.4035491943359	241.6846771240234	39.11315536499023	180.6513214111328	
426	4.25	447.4581604003906	1484.582153320313	225.5517730712891	508.4924621582031	1437.8837890625	386.2497863769531	493.4943542480469	1447.728393554688	63.02741241455078	336.6050415039063	1033.845581054688	237.0726470947266	524.1622924804688	989.7781372070313	332.4170227050781	565.6417846679688	585.8270874023438	401.37158203125	606.018798828125	515.1350708007813	346.7225952148438	659.2189331054688	192.7230834960938	363.7786254882813	716.90625	74.31730651855469	301.4268188476563	nan	nan	nan	861.1734008789063	92.80134582519531	294.2926940917969	493.1126708984375	991.2378540039063	86.59824371337891	337.6826782226563	586.33935546875	45.81117248535156	327.3458862304688	498.3877868652344	107.0418319702148	183.0526733398438	255.0017852783203	75.69137573242188	113.5116195678711	100.6177673339844	152.1249237060547	42.25003051757813	80.76551818847656	203.0671539306641	243.3074340820313	39.71866226196289	180.5302581787109	
427	4.26	458.4328002929688	1483.695556640625	226.9125518798828	519.6034545898438	1436.873168945313	387.6278991699219	503.7791137695313	1447.241455078125	64.23345184326172	347.8489990234375	1032.9404296875	237.8472137451172	535.8648681640625	989.0950927734375	332.6263732910156	578.752685546875	585.3098754882813	400.744384765625	618.3628540039063	514.3594970703125	345.7478637695313	665.4039916992188	190.5525054931641	363.5597229003906	719.457763671875	71.19061279296875	300.7673645019531	nan	nan	nan	864.1258544921875	85.73054504394531	292.9814758300781	504.2042846679688	990.3844604492188	86.87610626220703	347.2584533691406	585.9209594726563	45.64731216430664	336.5624084472656	497.7326965332031	106.6399841308594	188.3503723144531	256.6465148925781	74.86860656738281	115.5070343017578	103.2470245361328	151.0172576904297	43.72820281982422	85.49128723144531	201.7829437255859	243.1502380371094	39.53903579711914	180.625244140625	
428	4.27	469.1298217773438	1483.107055664063	228.3838043212891	530.653076171875	1435.947021484375	389.0256652832031	514.4058837890625	1446.800903320313	65.47964477539063	359.1278686523438	1032.27880859375	238.5902557373047	547.469970703125	988.5429077148438	332.8640747070313	591.1127319335938	585.1255493164063	400.6030578613281	630.2481689453125	513.3250732421875	345.23486328125	672.930908203125	189.1516876220703	363.2212219238281	722.354736328125	69.35610198974609	299.4925231933594	nan	nan	nan	868.8136596679688	78.44650268554688	291.7906494140625	515.4595336914063	989.6340942382813	87.24448394775391	357.3671264648438	585.5054321289063	45.55615997314453	346.0954284667969	497.0086975097656	106.2564849853516	193.8680725097656	258.5837097167969	74.01669311523438	117.7209625244141	106.3563537597656	149.9018707275391	45.78780364990234	90.62281036376953	200.5017547607422	nan	nan	nan	
429	4.28	480.1996765136719	1482.961547851563	229.8058624267578	541.8104858398438	1435.206420898438	390.44873046875	525.4481201171875	1446.513916015625	66.71761322021484	370.6202392578125	1031.73876953125	239.1015930175781	559.1306762695313	988.4064331054688	333.2263488769531	602.3292846679688	585.51318359375	400.8028564453125	641.1650390625	512.6736450195313	345.31787109375	680.2452392578125	188.4789886474609	362.3198852539063	727.1210327148438	69.63932037353516	298.4557495117188	nan	nan	nan	875.7977294921875	72.79563903808594	290.385009765625	526.7186889648438	988.9483032226563	87.60595703125	367.9968872070313	585.1331787109375	45.51061630249023	356.2821350097656	496.2665405273438	106.0641479492188	199.8759307861328	260.7041931152344	73.40090942382813	120.7824935913086	109.7341918945313	148.8315277099609	47.48394012451172	96.87236785888672	199.3388366699219	nan	nan	nan	
430	4.29	491.5333251953125	1483.15966796875	231.2752685546875	553.0801391601563	1434.7978515625	391.8979187011719	536.7927856445313	1446.55615234375	67.97016906738281	382.1610107421875	1031.45703125	239.3170928955078	570.863037109375	988.8025512695313	333.6951599121094	612.2278442382813	586.0736694335938	401.22705078125	650.8340454101563	513.0719604492188	345.9635620117188	687.8427734375	188.6873016357422	361.9423522949219	733.0396118164063	70.22275543212891	298.1813354492188	nan	nan	nan	881.316162109375	67.5489501953125	288.336669921875	538.503173828125	988.6535034179688	88.093505859375	379.5367431640625	584.7647705078125	45.61192321777344	367.3971862792969	495.6187133789063	105.8768463134766	206.8691864013672	262.9957580566406	72.78986358642578	124.3936386108398	113.5553283691406	147.7898712158203	48.63928604125977	104.4287872314453	198.4427185058594	nan	nan	nan	
